<svg width="20" height="20" viewBox="0 0 20 20" fill="none" xmlns="http://www.w3.org/2000/svg">
<path d="M13.9294 12.2579H13.0491L12.737 11.957C13.8291 10.6866 14.4866 9.03739 14.4866 7.24328C14.4866 3.24276 11.2438 0 7.24328 0C3.24276 0 0 3.24276 0 7.24328C0 11.2438 3.24276 14.4866 7.24328 14.4866C9.03739 14.4866 10.6866 13.8291 11.957 12.737L12.2579 13.0491V13.9294L17.8296 19.49L19.49 17.8296L13.9294 12.2579ZM7.24328 12.2579C4.46855 12.2579 2.2287 10.018 2.2287 7.24328C2.2287 4.46855 4.46855 2.2287 7.24328 2.2287C10.018 2.2287 12.2579 4.46855 12.2579 7.24328C12.2579 10.018 10.018 12.2579 7.24328 12.2579Z" fill="#1E2527" fill-opacity="0.64"/>
</svg>
